<svg xmlns="http://www.w3.org/2000/svg" viewBox="0 0 500 500"><defs><style>.cls-1,.cls-3{fill:#f2afc6;}.cls-1{opacity:0.2;}.cls-2{fill:#602938;}.cls-4{fill:none;stroke:#490e1a;stroke-linecap:round;stroke-miterlimit:10;stroke-width:13px;}.cls-5{fill:#792234;}</style></defs><g id="Camada_3" data-name="Camada 3"><circle class="cls-1" cx="250" cy="250" r="192.5"/></g><g id="Camada_1" data-name="Camada 1"><path class="cls-2" d="M142.52,160l43.31,175.42L408.3,309.35s34.2-8.34,38.21-49.69.8-102.3.8-102.3Z"/><path class="cls-3" d="M142.52,160l43.31,175.42,118.71-16c6.73-.79,13.21,4.32,81.81-12.83C412,300.13,420.06,273,420,255.11c-.08-37.27-.48-98.07-1.59-97.75Z"/><path class="cls-4" d="M120.5,160.06l326-.29V257a54.74,54.74,0,0,1-5.57,24.11c-8.18,16.75-24.77,27.81-43.3,29.92L162.57,337.83,105.31,95.91A37.91,37.91,0,0,0,68.42,66.72H40.66"/><path class="cls-4" d="M162.57,337.83c-33.68,12.83-20.85,48.12,0,48.12H459.34"/><circle class="cls-4" cx="198.67" cy="417.23" r="16.04"/><circle class="cls-3" cx="198.67" cy="417.23" r="14.44"/><path class="cls-5" d="M213.1,417.23a14.44,14.44,0,0,1-9,13.38,14.44,14.44,0,0,0-15.66-23.55,14.43,14.43,0,0,1,24.67,10.17Z"/><circle class="cls-4" cx="413.63" cy="417.23" r="16.04"/><circle class="cls-3" cx="413.63" cy="417.23" r="14.44"/><path class="cls-5" d="M428.06,417.23a14.44,14.44,0,0,1-9,13.38A14.43,14.43,0,0,0,408.81,406a14.18,14.18,0,0,0-5.42,1.05,14.43,14.43,0,0,1,24.67,10.17Z"/><line class="cls-4" x1="128.44" y1="193.63" x2="206.69" y2="193.63"/><line class="cls-4" x1="235.15" y1="194.26" x2="281.67" y2="194.26"/><line class="cls-4" x1="313.33" y1="194.26" x2="330.98" y2="194.26"/></g></svg>